<svg width="953" height="953" viewBox="0 0 953 953" fill="none" xmlns="http://www.w3.org/2000/svg">
<path fill-rule="evenodd" clip-rule="evenodd" d="M139.294 762.976L804.886 770.939L885.077 901.022L58.693 890.135L139.294 762.976Z" fill="#FFAEBD"/>
<path d="M885.087 903.403L58.6596 892.516C58.2356 892.511 57.8206 892.393 57.4576 892.174C57.0946 891.954 56.7967 891.642 56.5948 891.269C56.3928 890.896 56.294 890.476 56.3087 890.053C56.3234 889.629 56.4511 889.217 56.6784 888.859L137.284 761.7C137.445 761.423 137.66 761.181 137.917 760.99C138.173 760.798 138.466 760.66 138.777 760.584C139.088 760.508 139.412 760.496 139.728 760.548C140.044 760.6 140.346 760.715 140.617 760.886C140.887 761.058 141.12 761.282 141.302 761.546C141.484 761.809 141.611 762.107 141.675 762.421C141.739 762.735 141.739 763.058 141.675 763.372C141.611 763.686 141.485 763.984 141.303 764.248L62.9839 887.811L885.12 898.641C885.752 898.645 886.356 898.9 886.799 899.35C887.242 899.8 887.489 900.407 887.485 901.039C887.48 901.67 887.225 902.274 886.775 902.718C886.326 903.161 885.718 903.408 885.087 903.403V903.403Z" fill="#FF143F"/>
<path fill-rule="evenodd" clip-rule="evenodd" d="M185.361 594.489C208.221 594.812 234.025 598.86 238.825 615.024C243.626 631.188 259.595 726.591 239.74 734.606C217.489 743.593 142.585 749.346 121.939 732.196C108.9 721.376 115.067 627.05 127.826 612.224C140.584 597.398 162.092 594.16 185.361 594.489Z" fill="white"/>
<path fill-rule="evenodd" clip-rule="evenodd" d="M698.178 627.497C698.178 627.497 702.421 718.485 709.013 728.324C715.604 738.164 737.545 749.922 766.639 748.989C795.733 748.055 810.392 741.259 816.169 732.225C821.946 723.19 831.556 626.583 831.556 626.583C831.556 626.583 835.366 597.303 762.334 599.356C691.687 601.342 698.178 627.497 698.178 627.497Z" fill="white"/>
<path fill-rule="evenodd" clip-rule="evenodd" d="M135.126 626.226C135.126 626.226 149.081 611.743 182.075 610.872C215.07 610 229.8 626.473 229.8 626.473C229.8 626.473 226.571 633.579 184.018 637.122C150.967 639.88 135.126 626.226 135.126 626.226Z" fill="white"/>
<path d="M241.106 614.343C236.858 600.056 218.118 592.569 185.385 592.107C165.411 591.803 140.618 593.684 126.011 610.681C112.767 626.069 105.766 721.885 120.41 734.03C141.584 751.603 217.161 746.293 240.621 736.821C263.423 727.61 245.021 627.521 241.106 614.343ZM238.849 732.401C215.598 741.788 142.685 746.317 123.458 730.363C122.201 729.32 119.124 725.1 117.743 708.555C114.886 674.78 121.353 623.402 129.65 613.781C130.364 612.953 131.107 612.157 131.888 611.4C131.206 612.353 130.655 613.392 130.25 614.491C123.32 633.422 154.095 639.732 174.255 639.732C184.614 639.588 194.944 638.592 205.14 636.756C215.379 635.075 231.562 631.822 235.896 622.268C236.661 620.469 236.824 618.472 236.361 616.573C235.899 614.674 234.835 612.975 233.329 611.729C233.114 611.502 232.856 611.319 232.571 611.192C232.285 611.065 231.977 610.995 231.664 610.986C231.352 610.978 231.04 611.031 230.748 611.143C230.456 611.255 230.189 611.423 229.962 611.638C229.735 611.853 229.553 612.111 229.425 612.397C229.298 612.682 229.228 612.99 229.22 613.303C229.211 613.616 229.264 613.927 229.376 614.219C229.488 614.511 229.656 614.778 229.872 615.005C232.62 617.901 232.729 620.339 229.029 623.264C205.831 602.175 156.896 604.828 134.65 622.43C133.859 620.408 133.885 618.157 134.722 616.153C137.836 607.657 156.396 603.585 163.297 602.732C163.868 602.673 164.399 602.408 164.791 601.987C165.183 601.566 165.41 601.018 165.429 600.443C165.448 599.869 165.258 599.307 164.895 598.861C164.532 598.415 164.02 598.115 163.454 598.018C169.755 597.215 176.104 596.835 182.456 596.879C199.996 596.879 231.591 598.961 236.572 615.734C243.064 637.656 255.451 725.695 238.849 732.401V732.401ZM137.946 625.869C157.915 610.586 201.763 607.081 224.714 625.869C213.065 631.555 195.663 633.489 183.637 634.527C167.973 635.437 151.328 634.279 137.946 625.869Z" fill="#FF143F"/>
<path fill-rule="evenodd" clip-rule="evenodd" d="M118.381 428.749C157.005 484.16 174.293 624.259 174.293 624.259H167.707C157.685 557.635 141.165 492.153 118.381 428.749V428.749Z" fill="#FF143F"/>
<path fill-rule="evenodd" clip-rule="evenodd" d="M197.191 451.699C197.191 451.699 188.524 582.044 188.524 626.564H196.067C196.067 626.564 200.049 476.231 204.43 452.938L197.191 451.699Z" fill="#FF143F"/>
<path fill-rule="evenodd" clip-rule="evenodd" d="M204.812 359.488C204.812 359.488 174.808 513.736 174.808 632.636H182.094C182.094 632.636 201.654 388.644 204.812 359.488Z" fill="#FF143F"/>
<path d="M174.293 626.64H167.707C167.13 626.646 166.57 626.442 166.132 626.066C165.694 625.69 165.407 625.168 165.326 624.597C155.282 558.161 138.813 492.856 116.153 429.601C115.946 429.058 115.945 428.457 116.151 427.913C116.356 427.369 116.753 426.919 117.268 426.648C117.782 426.377 118.378 426.303 118.943 426.441C119.508 426.579 120.002 426.919 120.334 427.396C158.853 482.641 175.946 618.234 176.656 623.978C176.695 624.312 176.664 624.65 176.563 624.971C176.463 625.292 176.295 625.588 176.072 625.839C175.849 626.091 175.575 626.292 175.268 626.43C174.962 626.568 174.63 626.64 174.293 626.64ZM169.769 621.878H171.579C169.293 604.871 155.786 511.007 129.507 453.638C147.545 508.511 161.012 564.783 169.769 621.878V621.878Z" fill="#FF143F"/>
<path d="M196.058 628.945H188.519C187.887 628.945 187.282 628.694 186.835 628.248C186.388 627.801 186.138 627.196 186.138 626.564C186.138 582.473 194.71 452.847 194.805 451.542C194.827 451.209 194.919 450.885 195.074 450.59C195.229 450.295 195.445 450.036 195.706 449.829C195.968 449.623 196.27 449.473 196.593 449.391C196.916 449.309 197.253 449.295 197.582 449.351L204.83 450.59C205.142 450.643 205.439 450.758 205.706 450.927C205.972 451.097 206.203 451.317 206.383 451.577C206.563 451.836 206.69 452.129 206.757 452.437C206.823 452.746 206.827 453.065 206.769 453.376C202.482 476.236 198.477 625.126 198.439 626.626C198.423 627.247 198.165 627.837 197.72 628.27C197.275 628.703 196.679 628.945 196.058 628.945ZM190.905 624.183H193.762C194.286 605.033 197.763 482.498 201.725 454.885L199.406 454.49C198.182 472.854 191.172 581.873 190.905 624.183Z" fill="#FF143F"/>
<path d="M182.075 635.017H174.808C174.176 635.017 173.57 634.766 173.124 634.32C172.677 633.873 172.426 633.268 172.426 632.636C172.426 514.864 202.192 360.578 202.492 359.03C202.607 358.425 202.952 357.888 203.455 357.531C203.958 357.175 204.58 357.028 205.189 357.12C205.798 357.213 206.348 357.538 206.723 358.027C207.097 358.517 207.267 359.132 207.197 359.745C204.073 388.544 184.656 630.388 184.461 632.827C184.413 633.425 184.141 633.984 183.698 634.39C183.256 634.796 182.676 635.02 182.075 635.017V635.017ZM177.184 630.255H179.88C181.308 612.581 190.933 492.842 197.272 417.666C188.619 472.883 177.427 558.189 177.189 630.255H177.184Z" fill="#FF143F"/>
<path fill-rule="evenodd" clip-rule="evenodd" d="M127.559 431.94C127.559 431.94 155.529 377.69 104.499 376.976C112.356 380.373 118.587 386.69 121.874 394.594C125.162 402.498 125.25 411.37 122.12 419.338C122.12 419.338 117.758 377.68 70.2422 394.192C70.2422 394.192 101.327 399.397 102.627 415.671C102.627 415.671 74.5284 395.926 40.7861 431.94C40.7861 431.94 87.8444 422.443 97.4265 431.94C97.4265 431.94 38.6716 427.301 25.7223 462.362C51.4929 464.292 77.4022 461.69 102.275 454.676C85.0029 464.443 66.9801 472.818 48.3775 479.722C48.3775 479.722 95.3929 478.126 113.962 459.329L84.4344 499.605C84.4344 499.605 157.324 478.655 127.559 431.94Z" fill="#FF5574"/>
<path fill-rule="evenodd" clip-rule="evenodd" d="M202.706 449.394C202.706 449.394 176.989 437.216 164.978 458.691C155.134 476.312 153.805 491.485 172.65 521.275C172.65 521.275 172.65 488.656 179.932 477.393C179.932 477.393 177.451 522.603 193.3 536.824C193.3 536.824 190.948 488.39 199.049 481.546C199.049 481.546 198.572 536.824 234.934 546.101C234.934 546.101 220.399 514.193 219.761 504.73C219.761 504.73 232.143 541.691 261.799 550.088C261.799 550.088 256.365 511.464 240.439 493.204C240.439 493.204 272.005 500.477 287.741 513.655C287.741 513.655 265.252 476.564 249.326 472.697C249.326 472.697 252.041 465.734 278.192 473.997C273.505 468.532 267.723 464.111 261.22 461.022C254.716 457.932 247.637 456.242 240.439 456.062C240.439 456.062 240.439 437.355 279.863 443.584C267.719 436.403 254.354 431.524 240.439 429.192C225.328 427.33 209.978 430.944 202.706 449.394Z" fill="#FF5574"/>
<path d="M82.5009 498.181L103.456 469.635C81.7199 480.812 50.0826 482.017 48.4729 482.084C47.9088 482.102 47.3568 481.918 46.9153 481.567C46.4737 481.215 46.1714 480.718 46.0621 480.165C45.9529 479.611 46.0438 479.037 46.3188 478.544C46.5937 478.051 47.0347 477.672 47.5632 477.474C60.0576 472.813 72.2983 467.499 84.2345 461.553C64.8599 465.055 45.1229 466.118 25.4843 464.715C24.8527 464.652 24.2722 464.341 23.8702 463.849C23.4683 463.358 23.278 462.727 23.3412 462.096C23.4043 461.464 23.7158 460.884 24.207 460.482C24.6982 460.08 25.329 459.889 25.9605 459.953C51.4179 461.822 77.0065 459.253 101.584 452.361C102.14 452.195 102.738 452.238 103.264 452.481C103.791 452.725 104.21 453.152 104.444 453.683C104.678 454.214 104.71 454.812 104.534 455.365C104.359 455.918 103.987 456.387 103.489 456.686C91.009 463.755 78.1285 470.093 64.913 475.669C79.9721 473.511 101.422 468.601 112.271 457.619C112.694 457.191 113.263 456.939 113.864 456.913C114.465 456.887 115.053 457.089 115.511 457.48C115.969 457.87 116.262 458.419 116.331 459.016C116.401 459.614 116.242 460.215 115.886 460.7L90.883 494.847C104.161 489.68 131.431 476.44 132.317 454.604C132.329 454.292 132.403 453.984 132.534 453.7C132.666 453.416 132.852 453.161 133.082 452.948C133.311 452.736 133.581 452.571 133.875 452.463C134.168 452.355 134.48 452.306 134.793 452.318C135.106 452.331 135.413 452.405 135.697 452.536C135.981 452.667 136.237 452.853 136.449 453.083C136.661 453.313 136.826 453.583 136.934 453.876C137.042 454.17 137.092 454.482 137.079 454.795C135.803 486.975 87.173 501.324 85.1013 501.92C84.6158 502.076 84.0932 502.072 83.6102 501.908C83.1273 501.745 82.7095 501.431 82.4184 501.012C82.1273 500.594 81.9782 500.093 81.993 499.583C82.0079 499.073 82.1859 498.582 82.5009 498.181Z" fill="#FF143F"/>
<path d="M289.269 511.831C273.277 498.438 242.287 491.19 240.973 490.876C240.483 490.763 239.969 490.808 239.506 491.005C239.043 491.202 238.654 491.54 238.396 491.972C238.137 492.404 238.022 492.906 238.066 493.407C238.111 493.908 238.313 494.383 238.644 494.762C251.027 508.959 256.97 536.467 258.799 546.568C233.31 536.753 222.128 504.306 222.018 503.963C221.834 503.413 221.457 502.95 220.956 502.659C220.455 502.368 219.865 502.27 219.297 502.382C218.728 502.495 218.221 502.811 217.869 503.271C217.517 503.731 217.344 504.304 217.384 504.882C217.894 512.416 226.433 532.657 230.557 542.12C201.416 529.804 201.425 482.06 201.43 481.555C201.463 477.169 189.171 471.926 190.662 529.761C180.527 512.793 182.285 477.907 182.308 477.517C182.338 476.992 182.194 476.472 181.897 476.038C181.601 475.605 181.17 475.281 180.67 475.118C180.17 474.955 179.631 474.961 179.136 475.137C178.64 475.312 178.217 475.647 177.932 476.088C172.641 484.28 171.002 502.42 170.497 513.069C163.354 500.496 160.163 490.585 160.31 481.57C160.321 480.938 160.079 480.328 159.64 479.875C159.201 479.421 158.599 479.16 157.967 479.15C157.336 479.14 156.726 479.381 156.272 479.821C155.819 480.26 155.558 480.862 155.548 481.493C155.357 493.081 160.015 505.739 170.64 522.537C170.917 522.972 171.327 523.305 171.809 523.487C172.291 523.669 172.82 523.69 173.315 523.546C173.81 523.402 174.245 523.102 174.554 522.689C174.864 522.277 175.031 521.776 175.031 521.26C175.103 511.399 175.945 501.558 177.551 491.828C178.175 506.725 180.98 528.976 191.71 538.582C192.06 538.898 192.497 539.102 192.964 539.17C193.432 539.237 193.908 539.164 194.334 538.96C194.76 538.756 195.115 538.43 195.355 538.023C195.595 537.617 195.709 537.148 195.682 536.677C194.805 521.817 195.348 506.908 197.306 492.152C199.153 509.187 206.354 541.234 234.348 548.378C234.783 548.488 235.241 548.474 235.668 548.335C236.095 548.197 236.474 547.941 236.762 547.596C237.05 547.252 237.234 546.833 237.294 546.388C237.354 545.943 237.287 545.491 237.101 545.082C235.539 541.649 232.977 535.819 230.434 529.552C237.881 540.336 248.689 548.35 261.171 552.345C261.552 552.453 261.954 552.464 262.341 552.377C262.727 552.29 263.086 552.108 263.384 551.847C263.683 551.587 263.911 551.256 264.049 550.884C264.188 550.513 264.231 550.113 264.176 549.721C263.971 548.264 259.413 516.912 246.493 497.238C256.461 500.096 275.392 506.373 286.231 515.445C286.469 515.658 286.747 515.821 287.049 515.925C287.351 516.028 287.671 516.069 287.99 516.047C288.308 516.024 288.619 515.937 288.903 515.792C289.187 515.647 289.44 515.446 289.645 515.201C289.85 514.956 290.004 514.673 290.097 514.368C290.19 514.062 290.221 513.741 290.188 513.424C290.155 513.106 290.058 512.798 289.903 512.519C289.749 512.24 289.54 511.994 289.288 511.797L289.269 511.831Z" fill="#FF143F"/>
<path d="M763.453 751.418C736.244 751.418 714.261 740.44 707.036 729.648C700.307 719.638 696.301 637.965 695.825 627.783C695.546 625.589 695.722 623.362 696.341 621.239C696.961 619.116 698.011 617.143 699.426 615.443C705.341 607.657 721.047 598.132 762.291 596.975C804.077 595.841 821.317 604.961 828.442 612.853C830.281 614.684 831.719 616.878 832.665 619.295C833.611 621.712 834.044 624.299 833.938 626.893C832.957 636.77 824.117 724.262 818.193 733.506C808.634 748.417 781.122 751.418 763.453 751.418ZM769.549 601.632C751.037 601.632 714.747 603.537 703.35 618.139C702.277 619.323 701.468 620.721 700.975 622.24C700.483 623.76 700.318 625.367 700.492 626.954C700.592 627.431 704.779 717.732 710.97 726.996C716.794 735.697 737.878 747.536 766.534 746.608C791.632 745.803 808.096 740.383 814.159 730.939C818.174 724.667 825.341 664.954 829.18 626.35C829.196 624.39 828.807 622.448 828.038 620.645C827.27 618.843 826.138 617.218 824.713 615.872C818.617 609.243 804.072 601.632 769.549 601.632V601.632Z" fill="#FF143F"/>
<path fill-rule="evenodd" clip-rule="evenodd" d="M708.979 631.598C708.979 631.598 723.267 615.191 762.667 614.629C802.067 614.067 822.741 631.346 822.741 631.346C822.741 631.346 810.216 646.457 763.586 644.785C716.956 643.114 708.979 631.598 708.979 631.598Z" fill="white"/>
<path d="M826.794 616.915C826.652 616.629 826.454 616.374 826.213 616.166C825.971 615.958 825.689 615.8 825.385 615.703C825.081 615.606 824.761 615.571 824.443 615.6C824.125 615.629 823.816 615.721 823.535 615.872C823.253 616.023 823.005 616.228 822.805 616.477C822.605 616.726 822.456 617.012 822.369 617.319C822.282 617.626 822.257 617.947 822.296 618.264C822.335 618.581 822.438 618.887 822.598 619.163C823.463 620.504 823.905 622.074 823.869 623.669C823.832 625.264 823.318 626.812 822.393 628.112C789.851 605.204 730.034 608.505 708.284 628.917C707.295 627.909 706.623 626.634 706.35 625.25C705.793 620.43 713.07 615.858 715.923 614.501C716.439 614.2 716.824 613.717 717.001 613.146C717.177 612.575 717.133 611.959 716.876 611.419C716.62 610.88 716.17 610.456 715.615 610.233C715.061 610.01 714.443 610.003 713.884 610.214C713.341 610.471 700.549 616.625 701.621 625.811C702.721 635.408 720.552 646.447 757.095 648.005C771.349 648.669 785.63 647.495 799.586 644.514C816.092 640.856 834.766 631.788 826.794 616.915ZM818.921 631.531C805.672 641.394 780.55 642.995 763.676 642.409C729.277 641.171 716.485 634.498 712.484 631.569C733.492 613.81 787.408 610.543 818.926 631.531H818.921Z" fill="#FF143F"/>
<path fill-rule="evenodd" clip-rule="evenodd" d="M752.875 635.151C752.875 635.151 752.837 485.756 748.898 437.059C748.898 437.059 764.205 575.739 761.419 633.422L752.875 635.151Z" fill="#FF143F"/>
<path fill-rule="evenodd" clip-rule="evenodd" d="M791.075 631.246C791.075 631.246 796.385 552.802 805.148 528.228C805.148 528.228 800.09 610.114 800.019 631.403L791.075 631.246Z" fill="#FF143F"/>
<path d="M752.875 637.532C752.244 637.532 751.638 637.281 751.191 636.835C750.745 636.388 750.494 635.782 750.494 635.151C750.494 633.655 750.408 485.294 746.522 437.255C746.47 436.629 746.667 436.009 747.07 435.529C747.474 435.048 748.05 434.746 748.675 434.688C748.984 434.651 749.298 434.676 749.597 434.763C749.897 434.85 750.176 434.996 750.417 435.193C750.659 435.39 750.859 435.634 751.004 435.909C751.15 436.185 751.239 436.487 751.265 436.797C751.418 438.188 766.563 576.339 763.796 633.531C763.757 634.159 763.476 634.748 763.011 635.171C762.545 635.594 761.933 635.819 761.305 635.798C760.992 635.784 760.686 635.708 760.403 635.575C760.12 635.441 759.866 635.254 759.655 635.023C759.445 634.791 759.282 634.521 759.176 634.227C759.07 633.932 759.023 633.62 759.038 633.308C760.366 605.838 757.523 559.46 754.218 518.712C755.223 574.638 755.256 634.208 755.256 635.151C755.256 635.782 755.005 636.388 754.559 636.835C754.112 637.281 753.507 637.532 752.875 637.532Z" fill="#FF143F"/>
<path d="M800.024 633.784C799.392 633.784 798.787 633.533 798.34 633.087C797.894 632.64 797.643 632.034 797.643 631.403C797.686 618.873 799.467 585.111 800.919 559.57C796.233 591.002 793.495 630.86 793.456 631.417C793.414 632.049 793.123 632.637 792.646 633.054C792.17 633.471 791.547 633.681 790.916 633.639C790.284 633.596 789.695 633.305 789.279 632.828C788.862 632.352 788.652 631.729 788.694 631.098C788.913 627.878 794.133 552.04 802.901 527.437C803.093 526.896 803.475 526.443 803.976 526.161C804.476 525.879 805.062 525.788 805.625 525.904C806.187 526.02 806.689 526.335 807.038 526.792C807.386 527.249 807.557 527.816 807.52 528.39C807.468 529.209 802.467 610.448 802.396 631.422C802.391 632.048 802.139 632.648 801.695 633.09C801.251 633.532 800.651 633.782 800.024 633.784Z" fill="#FF143F"/>
<path fill-rule="evenodd" clip-rule="evenodd" d="M719.514 422.481C719.514 422.481 613.672 424.229 577.429 507.525C577.429 507.525 570.929 417.152 713.194 416.714C713.194 416.714 673.446 383.143 598.332 403.207C598.332 403.207 642.799 358.126 725.729 412.413C725.729 412.413 713.346 335.59 667.069 287.274C667.069 287.274 721.652 309.453 735.473 409.332C735.473 409.332 732.825 315.339 698.43 265.395C698.43 265.395 738.435 304.105 745.884 408.199C745.884 408.199 741.497 275.663 767.834 246.155C767.834 246.155 750.003 357.635 755.228 406.946C755.228 406.946 808.915 330.398 877.067 340.133C832.43 348.78 792.473 373.394 764.672 409.37C764.672 409.37 804.748 361.617 885.792 381.981C885.792 381.981 824.722 381.171 781.317 408.737C781.317 408.737 850.849 398.659 887.235 474.936C887.235 474.936 832.271 421.686 780.931 415.452C780.931 415.452 846.492 438.14 872.042 521.013C872.042 521.013 818.445 436.35 777.526 425.948C794.126 467.821 796.403 514.01 784.003 557.312C784.003 557.312 788.199 473.173 766.905 431.544C761.009 473.253 760.241 515.527 764.619 557.422C764.619 557.422 749.379 458.143 754.618 434.249C737.052 473.792 729.927 517.181 733.925 560.265C733.925 560.265 721.714 467.263 740.383 434.573C740.383 434.573 701.612 464.706 695.373 526.161C695.373 526.161 692.439 453.89 728.753 426.315C728.753 426.315 671.265 470.43 650.853 524.499C650.872 524.499 665.345 443.97 719.514 422.481Z" fill="#FF5574"/>
<path d="M733.925 562.646C733.348 562.646 732.791 562.435 732.357 562.054C731.923 561.673 731.643 561.147 731.568 560.575C731.115 557.112 721.567 482.86 733.716 444.289C713.176 467.057 700.558 495.863 697.749 526.399C697.731 527.031 697.463 527.629 697.003 528.063C696.543 528.496 695.931 528.73 695.299 528.711C694.667 528.693 694.069 528.424 693.635 527.965C693.202 527.505 692.969 526.892 692.987 526.261C692.892 523.88 691.368 479.827 708.503 447.413C690.163 465.225 665.021 493.685 653.068 525.342C652.858 525.898 652.449 526.356 651.919 526.625C651.389 526.895 650.778 526.957 650.205 526.799C649.632 526.64 649.139 526.274 648.823 525.771C648.507 525.268 648.39 524.665 648.496 524.08C649.057 520.979 661.764 453.028 707.303 425.853C678.404 429.235 606.309 444.074 579.601 508.435C579.353 509.008 578.889 509.46 578.31 509.694C577.732 509.929 577.084 509.926 576.507 509.688C575.93 509.449 575.47 508.994 575.225 508.419C574.981 507.844 574.972 507.197 575.201 506.616C609.967 422.796 718.361 420.119 719.452 420.1C720.01 420.091 720.553 420.277 720.987 420.628C721.421 420.978 721.719 421.469 721.828 422.016C721.936 422.563 721.85 423.131 721.583 423.621C721.316 424.111 720.885 424.491 720.366 424.696C687.105 437.888 669.036 474.516 660.254 499.643C682.114 462.42 716.452 433.216 725.205 426.096C725.891 425.518 726.591 424.959 727.305 424.42C727.556 424.23 727.841 424.092 728.144 424.012C728.448 423.933 728.764 423.914 729.075 423.957C729.386 424 729.685 424.104 729.956 424.262C730.227 424.421 730.464 424.631 730.653 424.882C730.843 425.132 730.981 425.417 731.061 425.72C731.14 426.024 731.159 426.34 731.116 426.651C731.073 426.962 730.969 427.262 730.811 427.532C730.652 427.803 730.442 428.04 730.191 428.23C730.134 428.277 729.482 428.782 728.339 429.711C710.413 444.684 702.931 471.621 699.835 493.238C706.967 469.823 720.492 448.862 738.888 432.716C739.323 432.377 739.862 432.2 740.414 432.215C740.965 432.23 741.494 432.435 741.911 432.797C742.327 433.158 742.606 433.653 742.698 434.197C742.79 434.741 742.691 435.3 742.417 435.778C733.844 450.78 731.996 479.288 732.416 505.211C735.47 480.355 742.212 456.094 752.418 433.225C752.677 432.705 753.117 432.298 753.656 432.079C754.194 431.861 754.794 431.847 755.342 432.041C755.89 432.234 756.348 432.621 756.631 433.128C756.913 433.636 757 434.23 756.876 434.797C754.494 445.751 756.552 473.345 759.414 499.567C759.567 476.687 761.266 453.843 764.5 431.192C764.581 430.696 764.816 430.239 765.172 429.885C765.528 429.531 765.987 429.298 766.483 429.221C766.979 429.143 767.487 429.224 767.934 429.452C768.381 429.681 768.744 430.045 768.972 430.492C783.489 458.886 786.365 505.844 786.66 534.029C792.687 497.977 788.78 460.966 775.359 426.968C775.17 426.559 775.1 426.106 775.158 425.66C775.216 425.214 775.399 424.793 775.686 424.447C775.973 424.101 776.352 423.843 776.78 423.703C777.208 423.563 777.666 423.548 778.102 423.658C808.682 431.425 845.282 478.326 863.179 503.668C835.147 437.555 780.736 417.943 780.141 417.724C779.584 417.532 779.118 417.141 778.833 416.626C778.548 416.111 778.463 415.509 778.596 414.936C778.728 414.362 779.069 413.858 779.551 413.521C780.033 413.183 780.623 413.037 781.207 413.109C832.747 419.371 886.611 471.054 888.883 473.25C889.107 473.468 889.286 473.729 889.41 474.018C889.534 474.306 889.599 474.615 889.603 474.929C889.607 475.243 889.55 475.554 889.433 475.845C889.317 476.136 889.144 476.402 888.926 476.626C888.707 476.851 888.446 477.03 888.158 477.154C887.869 477.277 887.56 477.343 887.246 477.347C886.933 477.351 886.621 477.293 886.33 477.177C886.039 477.06 885.774 476.888 885.549 476.669C885.073 476.193 843.248 436.088 799.348 422.048C835.69 444.347 862.419 479.388 874.319 520.332C874.488 520.883 874.452 521.477 874.217 522.003C873.982 522.529 873.564 522.953 873.04 523.194C872.516 523.435 871.923 523.479 871.37 523.316C870.817 523.153 870.342 522.795 870.033 522.308C869.523 521.503 820.55 444.717 781.65 429.792C796.437 471.01 798.06 515.804 786.294 557.984C786.137 558.549 785.776 559.037 785.281 559.353C784.787 559.669 784.193 559.791 783.614 559.696C783.035 559.601 782.511 559.295 782.143 558.838C781.776 558.38 781.59 557.803 781.622 557.217C781.66 556.431 785.108 482.541 768.134 440.06C763.366 478.932 762.981 518.216 766.987 557.174C767.055 557.793 766.878 558.414 766.495 558.904C766.111 559.394 765.551 559.714 764.934 559.797C764.317 559.879 763.693 559.716 763.194 559.343C762.696 558.971 762.363 558.418 762.267 557.803C761.734 554.341 751.094 484.484 751.142 448.856C738.006 484.351 732.945 522.326 736.326 560.022C736.36 560.356 736.323 560.694 736.218 561.013C736.112 561.332 735.94 561.625 735.714 561.873C735.487 562.12 735.211 562.317 734.902 562.451C734.594 562.584 734.261 562.651 733.925 562.646ZM713.18 419.095C712.618 419.094 712.075 418.895 711.646 418.533C711.261 418.209 671.832 386.039 598.932 405.508C598.326 405.659 597.685 405.566 597.147 405.248C596.609 404.931 596.217 404.415 596.056 403.812C595.895 403.208 595.977 402.565 596.285 402.022C596.593 401.479 597.103 401.078 597.703 400.907C673.156 380.752 713.056 413.49 714.718 414.895C715.09 415.209 715.357 415.63 715.482 416.1C715.608 416.571 715.586 417.068 715.42 417.526C715.254 417.984 714.952 418.38 714.554 418.66C714.156 418.941 713.681 419.093 713.194 419.095H713.18Z" fill="#FF143F"/>
<path d="M731.12 584.073C750.956 560.998 776.508 543.54 805.215 533.448C823.193 580.339 819.502 651.081 819.502 651.081C831.975 573.857 813.845 532.581 813.845 532.581C838.519 572.162 850.825 671.451 850.825 671.451C861.513 598.984 826.203 530.771 826.203 530.771C863.713 579.282 875.186 670.746 875.186 670.746C886.811 603.118 830.371 521.556 830.371 521.556C854.578 546.668 874.833 585.783 874.833 585.783C873.552 524.708 829.228 513.302 829.228 513.302C857.964 491.095 929.211 496.995 929.211 496.995C865.394 469.592 822.431 507.316 822.431 507.316C835.89 467.092 901.06 450.318 901.06 450.318C851.345 444.108 815.364 501.039 815.364 501.039C823.822 478.998 816.921 440.95 809.958 413.775L807.201 413.613C810.325 440.888 806.601 463.105 807.949 505.32C798.9 421.976 746.57 406.37 745.812 408.208C794.257 440.693 799.457 502.367 797.809 503.487C707.322 451.718 641.633 539.734 641.633 539.734C730.101 474.759 798.219 512.712 798.219 512.712C733.925 490.195 701.588 560.856 701.588 560.856C754.928 501.958 799.029 522.532 799.029 522.532C752.47 536.429 731.12 584.073 731.12 584.073Z" fill="#FF5574"/>
<path d="M859.117 487.413C856.198 488.099 853.283 488.918 850.459 489.847C850.158 489.942 849.879 490.095 849.638 490.298C849.397 490.501 849.199 490.75 849.055 491.031C848.911 491.311 848.824 491.617 848.799 491.932C848.775 492.246 848.813 492.562 848.911 492.861C849.009 493.161 849.166 493.438 849.372 493.676C849.579 493.915 849.83 494.11 850.112 494.25C850.395 494.391 850.702 494.474 851.016 494.494C851.331 494.515 851.646 494.473 851.945 494.371C854.64 493.485 857.421 492.704 860.208 492.047C860.806 491.888 861.32 491.501 861.638 490.97C861.957 490.438 862.055 489.804 861.913 489.2C861.771 488.597 861.4 488.073 860.878 487.739C860.356 487.406 859.724 487.289 859.117 487.413Z" fill="#FF143F"/>
<path d="M821.651 509.611C822.249 509.812 822.903 509.767 823.468 509.485C824.034 509.204 824.464 508.71 824.665 508.111C837.552 469.592 900.994 452.828 901.632 452.666C902.244 452.509 902.768 452.115 903.09 451.571C903.411 451.027 903.504 450.378 903.346 449.766C903.189 449.154 902.795 448.629 902.251 448.308C901.707 447.986 901.058 447.894 900.446 448.051C897.731 448.747 833.862 465.62 820.15 506.597C819.95 507.195 819.995 507.849 820.276 508.415C820.558 508.98 821.052 509.41 821.651 509.611Z" fill="#FF143F"/>
<path d="M805.496 424.443C806.725 424.069 808.037 424.063 809.27 424.425C810.503 424.787 811.603 425.502 812.435 426.482C812.793 426.482 813.146 426.402 813.468 426.247C813.791 426.092 814.074 425.866 814.298 425.587C814.521 425.307 814.678 424.981 814.758 424.632C814.838 424.283 814.838 423.921 814.759 423.572C813.649 418.714 812.487 414.047 811.339 409.737C811.054 409.139 810.591 408.644 810.014 408.318C809.436 407.993 808.773 407.853 808.114 407.918C807.454 407.983 806.831 408.25 806.328 408.682C805.826 409.114 805.469 409.69 805.305 410.332C806.124 414.457 804.834 419.81 805.496 424.443Z" fill="#FF143F"/>
<path d="M929.383 494.638C926.435 494.39 856.874 488.923 827.751 511.435C827.398 511.707 827.129 512.073 826.973 512.491C826.818 512.909 826.783 513.362 826.872 513.798C826.961 514.235 827.172 514.638 827.478 514.961C827.785 515.284 828.177 515.515 828.608 515.626C830.237 516.05 866.199 526.028 871.742 575.329C860.642 555.424 847.331 536.836 832.061 519.917C831.646 519.485 831.083 519.225 830.485 519.189C829.887 519.154 829.297 519.345 828.834 519.725C828.37 520.105 828.067 520.645 827.985 521.239C827.902 521.833 828.047 522.435 828.389 522.927C828.894 523.656 873.914 589.521 874.343 650.781C868.794 621.02 855.293 564.518 828.065 529.338C827.703 528.863 827.176 528.542 826.588 528.438C826.001 528.334 825.395 528.455 824.892 528.776C824.389 529.097 824.025 529.595 823.872 530.172C823.718 530.749 823.787 531.362 824.065 531.89C824.384 532.5 852.687 588.054 850.259 651.177C845.296 619.939 833.933 560.394 815.826 531.343C815.508 530.831 815.007 530.459 814.425 530.301C813.844 530.144 813.224 530.213 812.691 530.494C812.158 530.776 811.752 531.249 811.554 531.818C811.356 532.388 811.382 533.011 811.625 533.562C811.768 533.886 822.769 559.684 821.307 607.928C819.879 584.44 816.24 555.593 807.425 532.6C807.21 532.036 806.789 531.575 806.247 531.31C805.705 531.045 805.082 530.995 804.505 531.171C782.181 538.927 761.656 551.117 744.164 567.009C754.704 552.326 773.03 532.781 799.671 524.827C800.134 524.689 800.543 524.413 800.845 524.037C801.147 523.66 801.328 523.201 801.363 522.72C801.398 522.238 801.286 521.758 801.042 521.341C800.797 520.925 800.432 520.593 799.995 520.389C798.305 519.603 761.419 503.201 714.232 544.93C728.243 526.223 756.142 500.52 797.395 514.969C797.956 515.159 798.567 515.134 799.11 514.897C799.653 514.661 800.089 514.23 800.332 513.69C800.574 513.15 800.607 512.538 800.423 511.975C800.24 511.412 799.853 510.938 799.338 510.645C798.647 510.259 728.853 472.697 640.185 537.829C639.919 538.009 639.693 538.24 639.519 538.509C639.345 538.779 639.228 539.08 639.173 539.396C639.119 539.712 639.129 540.036 639.202 540.348C639.276 540.66 639.412 540.953 639.602 541.212C639.791 541.47 640.031 541.687 640.307 541.85C640.583 542.013 640.889 542.119 641.207 542.161C641.525 542.204 641.847 542.181 642.156 542.095C642.465 542.01 642.754 541.863 643.004 541.663C695.554 503.087 741.074 501.448 768.734 506.12C723.067 509.511 699.678 559.275 699.392 559.879C699.156 560.396 699.112 560.981 699.268 561.527C699.425 562.073 699.772 562.546 700.246 562.858C700.721 563.171 701.292 563.304 701.856 563.233C702.42 563.162 702.939 562.891 703.321 562.47C742.702 518.998 777.049 519.86 791.161 522.718C749.089 539.067 729.782 581.22 728.939 583.101C728.704 583.626 728.666 584.218 728.834 584.768C729.001 585.318 729.362 585.789 729.85 586.094C730.337 586.399 730.919 586.517 731.487 586.426C732.055 586.336 732.57 586.043 732.939 585.602C752.042 563.516 776.41 546.609 803.786 536.448C820.455 582.33 817.121 650.272 817.093 650.976C817.059 651.586 817.261 652.184 817.657 652.649C818.052 653.113 818.611 653.409 819.218 653.473C819.824 653.538 820.433 653.368 820.917 652.997C821.402 652.626 821.725 652.084 821.822 651.481C827.391 620.486 827.772 588.781 822.95 557.66C839.724 602.809 848.325 670.941 848.425 671.765C848.496 672.337 848.771 672.864 849.201 673.248C849.631 673.633 850.185 673.848 850.762 673.854C851.338 673.861 851.898 673.658 852.336 673.283C852.774 672.909 853.061 672.388 853.145 671.817C859.812 626.788 848.687 583.049 839.257 556.255C864.241 604.995 872.69 670.293 872.79 671.06C872.861 671.627 873.133 672.15 873.557 672.533C873.981 672.916 874.529 673.133 875.1 673.146C875.663 673.139 876.206 672.938 876.64 672.579C877.073 672.219 877.37 671.722 877.481 671.17C885.02 627.355 864.894 578.496 849.092 548.53C857.711 560.837 865.585 573.649 872.671 586.897C872.918 587.375 873.32 587.755 873.81 587.975C874.301 588.196 874.851 588.243 875.373 588.111C875.894 587.978 876.355 587.673 876.681 587.245C877.007 586.817 877.178 586.292 877.167 585.754C876.109 535.386 845.958 517.65 834.304 512.674C864.008 494.266 928.287 499.339 928.968 499.386C929.281 499.412 929.596 499.376 929.895 499.28C930.193 499.184 930.47 499.03 930.709 498.827C930.949 498.624 931.146 498.376 931.289 498.097C931.432 497.818 931.519 497.513 931.545 497.2C931.571 496.887 931.534 496.573 931.438 496.274C931.342 495.975 931.189 495.698 930.986 495.459C930.783 495.22 930.534 495.023 930.255 494.88C929.976 494.736 929.672 494.649 929.359 494.624L929.383 494.638Z" fill="#FF143F"/>
<path d="M744.403 410.146C758.689 420.581 770.601 433.924 779.355 449.297C788.109 464.67 793.506 481.723 795.19 499.334C791.437 497.329 787.656 495.524 783.908 493.943C783.329 493.712 782.683 493.718 782.108 493.958C781.533 494.199 781.076 494.655 780.833 495.229C780.591 495.802 780.583 496.448 780.812 497.028C781.04 497.607 781.486 498.075 782.055 498.329C787.049 500.448 791.913 502.863 796.619 505.563C796.98 505.769 797.388 505.877 797.804 505.877C798.22 505.876 798.628 505.766 798.989 505.559C799.349 505.351 799.649 505.053 799.858 504.693C800.067 504.334 800.178 503.926 800.181 503.51C799.204 486.399 794.841 469.651 787.344 454.237C779.847 438.824 769.367 425.052 756.509 413.718C763.331 417.1 769.391 421.836 774.321 427.639C774.525 427.882 774.775 428.082 775.058 428.227C775.341 428.372 775.649 428.459 775.966 428.483C776.283 428.506 776.601 428.467 776.902 428.366C777.203 428.265 777.481 428.104 777.719 427.895C777.957 427.685 778.151 427.429 778.289 427.143C778.427 426.857 778.506 426.546 778.523 426.229C778.539 425.912 778.491 425.595 778.383 425.297C778.275 424.998 778.108 424.724 777.892 424.491C761.662 406.089 746.46 405.841 745.808 405.836C745.304 405.835 744.812 405.993 744.404 406.288C743.995 406.583 743.691 407 743.535 407.48C743.379 407.959 743.379 408.475 743.535 408.954C743.691 409.433 743.994 409.851 744.403 410.146Z" fill="#FF143F"/>
<path fill-rule="evenodd" clip-rule="evenodd" d="M204.811 342.271C204.811 342.271 204.811 303.019 161.53 327.45C161.53 327.45 182.742 324.593 189.795 342.271C189.795 342.271 159.634 330.841 133.764 359.926C133.764 359.926 160.672 347.139 174.784 353.854C164.925 356.712 156.175 362.517 149.71 370.49C143.245 378.463 139.372 388.222 138.612 398.459C138.612 398.459 168.807 369.451 183.38 375.809C183.38 375.809 171.602 384.734 167.535 428.673C167.535 428.673 196.377 421.095 204.787 375.833C204.787 375.833 215.884 373.351 234.577 413.861C235.301 397.877 232.088 381.959 225.219 367.508C225.219 367.508 253.217 363.598 261.037 397.197C261.037 397.197 268.957 356.664 226.828 349.877C226.828 349.877 267.824 333.122 282.549 361.612C282.578 361.588 259.104 293.565 204.811 342.271Z" fill="#FF5574"/>
<path d="M165.168 428.43C168.083 396.969 175.022 382.924 179.003 377.266C167.221 376.79 147.571 393.163 140.275 400.174C139.922 400.512 139.474 400.733 138.991 400.808C138.508 400.882 138.014 400.807 137.576 400.591C137.137 400.375 136.776 400.03 136.541 399.601C136.305 399.173 136.207 398.683 136.26 398.197C136.998 388.834 140.215 379.836 145.581 372.127C150.947 364.419 158.268 358.278 166.792 354.335C153.281 353.382 134.984 361.955 134.765 362.074C134.48 362.237 134.165 362.341 133.839 362.377C133.512 362.413 133.182 362.381 132.869 362.283C132.556 362.186 132.266 362.024 132.018 361.809C131.77 361.595 131.569 361.331 131.428 361.034C131.286 360.738 131.208 360.416 131.197 360.088C131.186 359.76 131.244 359.433 131.365 359.128C131.487 358.823 131.67 358.547 131.903 358.316C132.137 358.085 132.415 357.905 132.721 357.788C133.864 357.249 160.82 344.614 175.789 351.72C176.234 351.932 176.602 352.277 176.843 352.707C177.084 353.138 177.185 353.632 177.133 354.122C177.08 354.613 176.877 355.075 176.551 355.444C176.225 355.814 175.792 356.074 175.313 356.187C167.01 358.558 159.518 363.166 153.656 369.506C147.795 375.847 143.788 383.676 142.075 392.139C151.719 383.81 172.079 368.289 184.342 373.637C184.723 373.804 185.053 374.068 185.3 374.402C185.546 374.736 185.702 375.129 185.75 375.541C185.798 375.954 185.737 376.372 185.574 376.754C185.411 377.136 185.15 377.468 184.818 377.719C184.738 377.781 174.451 386.548 170.288 425.077C177.884 421.596 196.048 409.837 202.444 375.385C202.527 374.923 202.744 374.496 203.069 374.157C203.393 373.818 203.811 373.582 204.269 373.48C206.24 373.004 216.246 372.699 232.115 403.36C231.154 391.289 228.091 379.478 223.066 368.46C222.915 368.123 222.844 367.756 222.859 367.387C222.874 367.018 222.975 366.658 223.153 366.334C223.331 366.011 223.582 365.734 223.886 365.524C224.19 365.314 224.539 365.178 224.904 365.127C225.219 365.074 255.151 361.317 263.371 396.635C263.515 397.25 263.408 397.897 263.074 398.434C262.74 398.97 262.207 399.352 261.592 399.495C260.977 399.638 260.33 399.532 259.794 399.198C259.258 398.864 258.876 398.331 258.732 397.716C252.96 372.904 235.977 369.841 228.8 369.694C234.936 383.656 237.73 398.858 236.958 414.09C236.902 414.606 236.677 415.09 236.32 415.467C235.963 415.844 235.492 416.094 234.98 416.179C234.467 416.264 233.941 416.178 233.481 415.936C233.022 415.694 232.654 415.308 232.434 414.838C219.189 386.143 210.136 379.895 206.716 378.538C197.611 422.738 169.398 430.635 168.178 430.954C167.806 431.058 167.413 431.069 167.035 430.988C166.657 430.906 166.305 430.733 166.008 430.485C165.712 430.236 165.481 429.919 165.334 429.561C165.188 429.203 165.131 428.815 165.168 428.43Z" fill="#FF143F"/>
<path fill-rule="evenodd" clip-rule="evenodd" d="M456.633 165.759C447.028 181.763 433.939 195.397 418.338 205.645C418.338 205.645 521.798 258.032 596.189 200.22C596.189 200.22 561.208 188.585 558.565 164.554L456.633 165.759Z" fill="#FF143F"/>
<path d="M511.869 229.686C479.643 229.054 447.89 221.813 418.576 208.412C418.272 208.292 417.995 208.111 417.764 207.88C417.532 207.649 417.351 207.373 417.231 207.068C417.111 206.764 417.055 206.438 417.067 206.112C417.078 205.785 417.157 205.464 417.298 205.169C417.439 204.874 417.639 204.611 417.886 204.396C418.133 204.182 418.422 204.021 418.734 203.923C419.046 203.825 419.375 203.793 419.7 203.828C420.025 203.862 420.34 203.964 420.624 204.125C430.992 209.059 523.937 250.822 592.426 200.101C592.934 199.782 593.543 199.665 594.133 199.775C594.722 199.885 595.248 200.214 595.606 200.695C595.964 201.176 596.127 201.775 596.063 202.371C595.999 202.967 595.712 203.517 595.26 203.911C571.001 221.333 541.728 230.381 511.869 229.686Z" fill="#FF143F"/>
<path fill-rule="evenodd" clip-rule="evenodd" d="M469.92 154.186C472.302 118.329 485.575 100.751 512.25 100.579C536.091 100.427 544.158 117.724 547.016 150.066C547.044 148.566 547.806 145.78 552.907 145.104C560.098 144.18 567.156 166.649 547.968 172.793C545.959 201.054 517.836 207.031 510.054 207.769C504.92 208.245 476.483 202.278 470.592 176.57C462.091 180.603 450.423 160.853 457.071 151.509C463.72 142.165 469.92 154.186 469.92 154.186Z" fill="white"/>
<path fill-rule="evenodd" clip-rule="evenodd" d="M490.614 202.854L489.547 216.189C489.547 216.189 470.021 221.832 455.39 224.69C440.76 227.547 422.329 244.75 418.314 256.008C414.3 267.267 412.871 278.997 404.27 288.326C395.669 297.656 359.459 357.321 375.357 363.255C391.254 369.189 428.549 303.319 446.556 285.774L558.551 283.526C558.551 283.526 588.078 354.435 618.697 357.94C649.057 361.421 626.026 328.522 613.272 307.457C596.165 279.221 594.432 272.777 588.893 257.899C583.354 243.021 577.896 229.471 555.922 223.995C545.989 221.898 536.285 218.831 526.952 214.836L526.361 202.835L490.614 202.854Z" fill="white"/>
<path d="M510.216 178.965C509.823 178.687 509.347 178.548 508.866 178.57C508.384 178.592 507.924 178.775 507.559 179.089C506.665 179.69 505.634 180.056 504.561 180.155C503.489 180.254 502.409 180.083 501.42 179.656C494.309 176.798 498.457 167.997 502.044 170.607C502.55 170.975 502.89 171.528 502.992 172.146C503.094 172.763 502.948 173.396 502.586 173.907C502.427 174.132 502.336 174.399 502.325 174.674C502.562 174.924 502.859 175.111 503.187 175.217C504.058 175.565 504.315 175.422 505.263 174.903C506.301 174.212 507.511 173.824 508.757 173.784C510.003 173.743 511.236 174.052 512.316 174.674C514.393 175.693 516.021 175.565 516.469 175.15C516.745 174.898 516.988 173.884 516.136 171.679C515.909 171.089 515.926 170.433 516.183 169.855C516.439 169.278 516.915 168.826 517.505 168.6C518.095 168.373 518.751 168.39 519.328 168.646C519.905 168.903 520.357 169.379 520.584 169.969C523.899 178.617 517.293 182.427 510.216 178.965Z" fill="#FF143F"/>
<path fill-rule="evenodd" clip-rule="evenodd" d="M497.186 92.1829C497.207 91.8437 497.259 91.5073 497.343 91.178C497.343 91.178 476.46 80.5767 487.294 66.4511C498.129 52.3255 506.025 51.5397 521.032 52.9923C536.038 54.4448 558.36 79.7289 525.756 92.6448L524.032 93.3164C560.537 103.761 558.589 148.895 558.589 148.895C558.589 148.895 550.245 139.37 547.192 150.433L544.906 135.541C530.732 129.073 519.6 117.385 513.831 102.913C502.17 117.633 487.816 130.002 471.535 139.36L469.997 153.776C469.997 153.776 465.858 144.485 459.138 149.128C459.129 149.128 458.61 99.8838 497.186 92.1829Z" fill="#FF143F"/>
<path d="M509.135 190.552C504.422 190.482 499.85 188.927 496.071 186.109C495.582 185.72 495.265 185.155 495.189 184.535C495.113 183.915 495.284 183.29 495.664 182.794C496.045 182.298 496.605 181.972 497.223 181.886C497.842 181.8 498.47 181.96 498.972 182.332C502.012 184.733 505.841 185.907 509.705 185.623C513.568 185.339 517.185 183.618 519.841 180.799C520.274 180.339 520.873 180.07 521.504 180.051C522.135 180.033 522.748 180.265 523.208 180.699C523.668 181.132 523.937 181.73 523.956 182.362C523.974 182.993 523.741 183.606 523.308 184.066C521.538 186.087 519.359 187.709 516.917 188.827C514.474 189.945 511.822 190.533 509.135 190.552V190.552Z" fill="#FF143F"/>
<path d="M508.497 197.191C507.037 197.23 505.597 196.837 504.358 196.063C503.836 195.707 503.476 195.159 503.359 194.538C503.241 193.917 503.374 193.275 503.73 192.753C504.085 192.23 504.634 191.871 505.255 191.753C505.875 191.635 506.517 191.768 507.04 192.124C507.206 192.219 509.121 193.186 512.617 191.014C512.882 190.842 513.18 190.724 513.491 190.667C513.803 190.611 514.123 190.617 514.432 190.686C514.741 190.755 515.034 190.884 515.292 191.068C515.551 191.251 515.77 191.484 515.937 191.753C516.105 192.022 516.216 192.321 516.267 192.634C516.317 192.947 516.304 193.267 516.229 193.575C516.154 193.882 516.018 194.172 515.829 194.427C515.641 194.681 515.404 194.896 515.131 195.058C513.165 196.38 510.865 197.119 508.497 197.191V197.191Z" fill="#FF143F"/>
<path d="M487.704 160.915C484.144 160.747 480.768 159.284 478.212 156.8C477.81 156.343 477.598 155.75 477.62 155.141C477.642 154.533 477.896 153.956 478.33 153.529C478.764 153.103 479.345 152.858 479.954 152.847C480.563 152.835 481.153 153.057 481.603 153.467C483.345 155.13 485.643 156.087 488.051 156.153C489.314 155.986 490.526 155.552 491.607 154.878C492.688 154.204 493.613 153.308 494.319 152.248C494.511 151.996 494.752 151.786 495.027 151.629C495.301 151.472 495.605 151.371 495.919 151.333C496.233 151.294 496.551 151.319 496.856 151.405C497.16 151.491 497.445 151.637 497.692 151.834C497.94 152.031 498.145 152.276 498.297 152.553C498.449 152.831 498.544 153.136 498.577 153.451C498.61 153.765 498.579 154.083 498.488 154.386C498.396 154.689 498.245 154.971 498.043 155.215C496.877 156.899 495.336 158.29 493.543 159.279C491.749 160.268 489.75 160.828 487.704 160.915V160.915Z" fill="#FF143F"/>
<path d="M530.923 160.596C526.735 160.287 522.82 158.399 519.97 155.315C519.565 154.844 519.36 154.233 519.399 153.614C519.438 152.994 519.717 152.414 520.177 151.998C520.638 151.581 521.242 151.36 521.863 151.383C522.483 151.406 523.07 151.67 523.499 152.119C525.449 154.313 528.188 155.647 531.119 155.829C532.344 155.714 533.529 155.33 534.589 154.706C535.649 154.081 536.559 153.23 537.253 152.214C537.652 151.724 538.229 151.413 538.858 151.348C539.487 151.284 540.116 151.472 540.606 151.871C541.096 152.27 541.407 152.848 541.471 153.477C541.536 154.105 541.348 154.734 540.949 155.224C539.801 156.828 538.301 158.147 536.562 159.079C534.824 160.01 532.895 160.53 530.923 160.596Z" fill="#FF143F"/>
<path d="M478.036 139.932C477.558 139.93 477.091 139.785 476.697 139.514C476.302 139.244 475.999 138.861 475.825 138.415C475.651 137.97 475.616 137.482 475.723 137.016C475.83 136.55 476.075 136.127 476.426 135.803C479.453 133.404 483.037 131.809 486.845 131.164C490.653 130.52 494.562 130.848 498.21 132.116C498.81 132.303 499.312 132.719 499.607 133.275C499.901 133.83 499.964 134.479 499.782 135.081C499.6 135.683 499.187 136.188 498.634 136.486C498.081 136.785 497.432 136.852 496.829 136.674C493.967 135.645 490.894 135.349 487.888 135.812C484.883 136.276 482.041 137.484 479.622 139.327C479.186 139.716 478.621 139.932 478.036 139.932V139.932Z" fill="#FF143F"/>
<path d="M539.139 141.727C538.741 141.728 538.35 141.628 538.001 141.439C537.651 141.249 537.355 140.975 537.139 140.641C532.1 132.84 519.789 135.693 519.66 135.731C519.046 135.879 518.398 135.777 517.859 135.447C517.32 135.117 516.934 134.586 516.786 133.971C516.638 133.357 516.741 132.709 517.071 132.17C517.401 131.631 517.931 131.245 518.546 131.097C519.184 130.94 534.262 127.449 541.139 138.055C541.371 138.415 541.502 138.83 541.518 139.258C541.533 139.685 541.434 140.109 541.229 140.485C541.024 140.861 540.722 141.174 540.354 141.393C539.987 141.612 539.567 141.727 539.139 141.727Z" fill="#FF143F"/>
<path d="M499.648 94.2498C507.35 93.1397 515.196 93.567 522.732 95.5071C523.038 95.6007 523.359 95.632 523.677 95.5988C523.995 95.5657 524.303 95.469 524.582 95.3143C524.862 95.1597 525.108 94.9503 525.305 94.6988C525.502 94.4472 525.646 94.1585 525.729 93.8499C525.812 93.5413 525.833 93.2192 525.789 92.9026C525.745 92.5861 525.637 92.2816 525.473 92.0074C525.309 91.7332 525.091 91.4948 524.833 91.3065C524.575 91.1182 524.282 90.9838 523.97 90.9113C515.793 88.7919 507.274 88.3272 498.915 89.5444C498.603 89.5893 498.303 89.6956 498.033 89.8571C497.762 90.0187 497.526 90.2324 497.339 90.4857C497.152 90.7391 497.016 91.0271 496.941 91.333C496.866 91.639 496.852 91.9569 496.901 92.2682C496.949 92.5795 497.059 92.8781 497.224 93.1467C497.389 93.4152 497.605 93.6484 497.861 93.8328C498.116 94.0171 498.406 94.1488 498.713 94.2204C499.02 94.292 499.338 94.302 499.648 94.2498Z" fill="#FF143F"/>
<path fill-rule="evenodd" clip-rule="evenodd" d="M458.386 331.77C458.386 331.77 461.21 349.391 463.206 356.535C463.206 356.535 479.398 370.394 511.426 367.998C543.454 365.603 546.64 357.654 546.64 357.654L549.464 330.794L458.386 331.77Z" fill="white"/>
<path fill-rule="evenodd" clip-rule="evenodd" d="M465.144 222.499C465.144 222.499 447.223 268.753 446.57 285.702C445.918 302.652 458.324 331.67 458.324 331.67C488.574 339.043 520.24 338.249 550.083 329.37C550.083 329.37 560.37 298.028 560.37 283.173C560.37 268.319 550.093 222.432 550.093 222.432L533.624 217.441C533.624 217.441 550.093 272.024 507.268 271.81C468.316 271.615 481.746 218.289 481.746 218.289L465.144 222.499Z" fill="#FF5574"/>
<path d="M457.857 334.008C457.478 333.933 457.122 333.766 456.822 333.522C456.522 333.278 456.285 332.964 456.133 332.608C455.619 331.403 443.527 302.9 444.194 285.612C444.851 268.467 462.186 223.547 462.925 221.642C463.064 221.291 463.285 220.979 463.569 220.731C463.853 220.482 464.192 220.305 464.558 220.213L481.151 216.003C481.55 215.901 481.97 215.905 482.368 216.015C482.765 216.124 483.128 216.334 483.42 216.626C483.712 216.917 483.923 217.279 484.033 217.677C484.143 218.075 484.147 218.494 484.046 218.894C483.975 219.175 477.15 247.055 488.156 261.233C490.468 264.012 493.405 266.206 496.726 267.635C500.048 269.063 503.66 269.686 507.268 269.453C517.031 269.281 524.265 266.509 528.699 260.561C539.558 246.021 531.409 218.427 531.328 218.151C531.204 217.739 531.194 217.301 531.299 216.883C531.404 216.466 531.62 216.085 531.924 215.78C532.229 215.476 532.61 215.26 533.028 215.155C533.445 215.05 533.883 215.06 534.295 215.184L550.764 220.175C551.168 220.297 551.531 220.524 551.818 220.833C552.105 221.142 552.305 221.521 552.398 221.932C552.821 223.837 562.742 268.224 562.742 283.183C562.742 298.261 552.741 328.841 552.336 330.132C552.215 330.501 552.006 330.834 551.728 331.104C551.449 331.374 551.108 331.571 550.736 331.679C520.436 340.063 488.539 340.863 457.857 334.008ZM460.038 329.584C489.171 335.924 519.4 335.184 548.188 327.427C550.045 321.583 557.974 295.865 557.974 283.135C557.974 270.11 549.735 231.962 548.045 224.28L536.958 220.923C543.349 249.241 536.51 274.649 507.23 274.168C479.75 274.034 473.612 248.626 478.603 221.513L466.911 224.48C464.172 231.686 449.509 270.867 448.937 285.769C448.399 300.161 457.791 324.083 460.038 329.589V329.584Z" fill="#FF143F"/>
<path fill-rule="evenodd" clip-rule="evenodd" d="M374.895 363.041C374.895 363.041 384.562 370.541 426.125 348.839C463.196 329.484 500.896 302.99 502.572 293.803C505.451 298.31 509.463 301.98 514.207 304.447C521.351 307.672 543.339 324.517 555.965 334.475C568.59 344.433 617.501 372.942 633.736 360.888C649.972 348.834 597.513 317.549 583.254 315.577C568.995 313.606 542.739 302.319 532.771 292.779C522.804 283.24 519.703 292.441 519.198 270.172C518.693 247.902 512.15 233.024 503.482 233.586C502.182 233.022 500.734 232.899 499.358 233.236C497.981 233.573 496.754 234.352 495.862 235.453C491.752 239.349 484.18 267.486 486.104 286.774C479.773 290.88 473.144 294.508 466.273 297.628C454.909 302.776 426.553 311.467 415.004 316.201C403.455 320.935 377.852 334.885 374.895 363.041Z" fill="white"/>
<path d="M465.139 171.312C464.508 171.312 463.902 171.061 463.455 170.614C463.009 170.168 462.758 169.562 462.758 168.931C462.791 158.601 459.596 155.534 459.596 155.534C459.136 155.113 458.857 154.532 458.817 153.911C458.776 153.29 458.976 152.677 459.377 152.2C459.77 151.729 460.333 151.431 460.943 151.37C461.554 151.308 462.164 151.488 462.644 151.871C463.149 152.276 467.563 156.2 467.52 168.94C467.518 169.57 467.266 170.173 466.82 170.618C466.373 171.062 465.769 171.312 465.139 171.312Z" fill="#FF143F"/>
<path d="M550.064 168.254H549.954C549.642 168.24 549.335 168.165 549.052 168.032C548.769 167.9 548.515 167.713 548.304 167.482C548.093 167.251 547.929 166.981 547.823 166.687C547.716 166.393 547.669 166.081 547.683 165.768C548.221 153.505 554.255 148.961 554.512 148.776C555.02 148.462 555.626 148.35 556.212 148.462C556.798 148.574 557.321 148.902 557.677 149.381C558.032 149.86 558.195 150.455 558.133 151.049C558.071 151.642 557.788 152.191 557.341 152.586C555.646 154.356 554.336 156.458 553.492 158.76C552.649 161.061 552.291 163.512 552.44 165.959C552.418 166.575 552.158 167.158 551.715 167.586C551.272 168.014 550.68 168.253 550.064 168.254Z" fill="#FF143F"/>
<path d="M504.025 370.641C476.403 370.641 462.291 358.869 461.639 358.326C461.279 358.018 461.018 357.61 460.891 357.154C458.886 349.967 456.129 332.865 456.014 332.146C455.955 331.833 455.958 331.511 456.025 331.2C456.092 330.888 456.221 330.594 456.404 330.333C456.587 330.072 456.821 329.851 457.091 329.682C457.361 329.513 457.662 329.4 457.977 329.349C458.292 329.299 458.613 329.312 458.923 329.388C459.232 329.465 459.523 329.602 459.778 329.793C460.033 329.983 460.248 330.223 460.409 330.498C460.57 330.773 460.674 331.078 460.715 331.394C460.743 331.56 463.353 347.772 465.277 355.125C468.306 357.368 483.851 367.655 511.231 365.603C537.286 363.65 543.32 358.011 544.311 356.821L547.078 330.522C547.096 330.201 547.179 329.887 547.322 329.599C547.464 329.311 547.664 329.054 547.908 328.845C548.153 328.636 548.437 328.479 548.744 328.383C549.051 328.287 549.374 328.254 549.694 328.286C550.014 328.318 550.324 328.415 550.606 328.57C550.887 328.726 551.134 328.936 551.332 329.19C551.53 329.443 551.675 329.734 551.757 330.045C551.84 330.356 551.858 330.68 551.812 330.998C548.745 359.969 549.021 358.021 548.831 358.502C548.207 360.059 543.468 367.951 511.583 370.332C508.973 370.546 506.444 370.641 504.025 370.641Z" fill="#FF143F"/>
<path fill-rule="evenodd" clip-rule="evenodd" d="M375.523 574.619C375.523 574.619 442.041 561.818 451.633 563.666C461.224 565.513 474.05 585.573 477.622 595.612C481.193 605.652 483.337 615.029 480.155 619.658C476.974 624.288 479.107 630.612 485.78 629.35C489.274 628.558 492.366 626.533 494.49 623.647C496.614 620.76 497.626 617.206 497.343 613.634C496.414 606.3 493.766 523.661 493.766 523.661C493.766 523.661 491.304 519.298 475.845 527.175C460.386 535.053 459.934 534.319 449.832 533.367C439.731 532.414 403.636 528.242 389.234 529.199L375.523 574.619Z" fill="white"/>
<path fill-rule="evenodd" clip-rule="evenodd" d="M550.15 635.017C514.302 638.589 499.234 640.528 499.234 640.528C499.234 640.528 500.996 739.354 497.329 755.042C493.662 770.73 491.004 815.111 494.562 826.789C498.119 838.466 503.949 846.134 508.811 845.81C513.674 845.486 511.388 836.428 511.388 836.428C511.388 836.428 516.017 844.734 521.113 843.658C526.209 842.581 522.803 837.719 522.803 837.719C522.803 837.719 530.614 844.977 531.057 837.4C532.299 837.033 533.361 836.219 534.038 835.115C534.715 834.012 534.959 832.696 534.724 831.423C536.534 826.137 536.589 820.407 534.881 815.087C531.824 807.677 518.431 790.561 517.35 783.126C516.703 767.916 519.287 752.741 524.932 738.602C531.176 725.795 549.231 671.341 550.15 635.017Z" fill="white"/>
<path fill-rule="evenodd" clip-rule="evenodd" d="M463.129 356.464C463.129 356.464 447.889 368.432 439.631 397.716C439.631 397.716 271.858 509.073 280.659 556.893C286.802 590.288 374.847 574.991 374.847 574.991C374.847 574.991 389.558 551.016 388.544 529.214C388.544 529.214 466.987 474.816 485.222 461.315C485.222 461.315 496.652 527.818 496.31 555.827C495.967 583.835 496.786 627.321 499.167 639.718C501.548 652.115 550.083 652.396 550.083 634.813C550.083 617.229 537.019 575.939 539.401 551.226C541.782 526.513 564.404 474.945 564.404 422.662C564.404 370.38 546.583 357.611 546.583 357.611C546.583 357.611 511.792 381.214 463.129 356.464Z" fill="#FFAEBD"/>
<g opacity="0.75">
<path opacity="0.75" d="M506.573 433.978L482.012 438.798L500.258 458.8L506.573 433.978Z" fill="#FF5574"/>
<path opacity="0.75" d="M508.968 524.451L533.529 529.276L515.288 549.278L508.968 524.451Z" fill="#FF5574"/>
<path opacity="0.75" d="M335.956 564.556V545.263L352.335 549.254L335.956 564.556Z" fill="#FF5574"/>
<path opacity="0.75" d="M289.931 542.896L303.062 521.698L309.034 549.254L289.931 542.896Z" fill="#FF5574"/>
<path opacity="0.75" d="M506.52 367.755L502.153 374.809L521.251 381.167L518.203 367.084C514.329 367.578 510.425 367.802 506.52 367.755V367.755Z" fill="#FF5574"/>
<path opacity="0.75" d="M361.588 492.233L352.335 472.94H368.703L361.588 492.233Z" fill="#FF5574"/>
<path opacity="0.75" d="M508.087 616.667L506.573 596.136L496.633 600.751C496.691 602.971 496.757 605.161 496.824 607.304L508.087 616.667Z" fill="#FF5574"/>
<path opacity="0.75" d="M385.091 535.329L368.703 521.708L383.581 514.802L385.091 535.329Z" fill="#FF5574"/>
<path opacity="0.75" d="M458.51 423.781L449.251 404.493H465.625L458.51 423.781Z" fill="#FF5574"/>
<path opacity="0.75" d="M532.252 466.039L548.483 479.85L533.528 486.585L532.252 466.039Z" fill="#FF5574"/>
<path opacity="0.75" d="M418.471 433.978L412.542 416.59C407.427 420.267 401.793 424.382 395.821 428.834L418.471 433.978Z" fill="#FF5574"/>
<path opacity="0.75" d="M420.357 466.868L404.717 486.585L395.668 460.986L420.357 466.868Z" fill="#FF5574"/>
<path opacity="0.75" d="M526.414 419.795V400.502L542.787 404.493L526.414 419.795Z" fill="#FF5574"/>
</g>
<path d="M462.053 358.588C476.117 366.048 491.759 370.04 507.678 370.232C521.821 370.506 535.757 366.807 547.902 359.554C548.161 359.379 548.383 359.154 548.555 358.893C548.727 358.632 548.846 358.339 548.905 358.032C548.964 357.725 548.962 357.409 548.899 357.103C548.836 356.797 548.713 356.506 548.538 356.247C548.362 355.988 548.138 355.766 547.876 355.594C547.615 355.422 547.323 355.303 547.016 355.244C546.708 355.185 546.393 355.187 546.086 355.25C545.78 355.313 545.489 355.436 545.23 355.611C544.892 355.84 510.94 378.114 464.21 354.339C463.932 354.198 463.627 354.112 463.316 354.088C463.004 354.064 462.69 354.102 462.393 354.199C462.095 354.296 461.82 354.451 461.582 354.654C461.345 354.858 461.149 355.106 461.008 355.385C460.866 355.664 460.781 355.968 460.757 356.28C460.732 356.592 460.77 356.905 460.867 357.203C460.964 357.5 461.119 357.776 461.322 358.013C461.526 358.251 461.774 358.446 462.053 358.588V358.588Z" fill="#FF143F"/>
<path d="M537.086 814.183C534.048 806.801 520.67 789.384 519.708 782.783C519.121 768.047 521.633 753.35 527.08 739.645C534.062 725.314 551.621 670.931 552.536 635.079C552.55 634.741 552.497 634.404 552.38 634.086C552.263 633.769 552.085 633.478 551.855 633.23C551.626 632.981 551.349 632.781 551.042 632.64C550.734 632.499 550.402 632.42 550.064 632.408C549.432 632.408 548.827 632.658 548.38 633.105C547.934 633.551 547.683 634.157 547.683 634.789C547.683 641.632 537.177 645.052 528.18 645.909C514.117 647.228 502.287 643.423 501.486 639.242C500.445 632.043 499.822 624.79 499.62 617.52C499.906 612.96 499.735 608.382 499.11 603.856C498.634 587.735 498.524 569.6 498.686 555.822C498.958 532.585 491.385 484.098 488.58 466.958C487.949 459.221 485.201 451.806 480.636 445.527C480.284 445.003 479.738 444.64 479.118 444.519C478.498 444.397 477.855 444.527 477.331 444.879C476.807 445.232 476.444 445.778 476.323 446.398C476.201 447.018 476.331 447.66 476.683 448.184C479.178 451.925 481.168 455.978 482.603 460.238C464.506 473.521 401.464 517.298 389.258 525.78C384.364 530.293 378.093 533.026 371.456 533.538C364.268 534.031 357.542 537.261 352.663 542.563C352.264 543.052 352.076 543.68 352.139 544.309C352.203 544.937 352.514 545.514 353.004 545.913C353.493 546.312 354.121 546.501 354.749 546.437C355.378 546.373 355.955 546.062 356.354 545.573C360.418 541.282 365.95 538.68 371.846 538.286C376.875 537.902 381.756 536.404 386.134 533.9C384.642 547.613 380.286 560.859 373.347 572.781C348.734 576.886 287.622 581.554 282.988 556.441C282.942 556.124 282.832 555.82 282.666 555.547C282.499 555.274 282.28 555.036 282.02 554.85C281.76 554.663 281.465 554.531 281.153 554.461C280.84 554.391 280.517 554.385 280.203 554.442C279.888 554.5 279.588 554.62 279.321 554.797C279.054 554.973 278.825 555.201 278.648 555.467C278.471 555.734 278.349 556.033 278.291 556.348C278.232 556.663 278.237 556.986 278.306 557.298C284.802 592.607 371.556 577.929 375.247 577.301C375.59 577.236 375.915 577.098 376.199 576.896C402.769 571.79 444.513 564.694 451.161 565.98C458.943 567.466 471.554 585.716 475.35 596.389C479.398 607.757 480.346 615.124 478.169 618.296C477.075 619.763 476.435 621.518 476.327 623.344C476.22 625.171 476.65 626.989 477.564 628.574C481.422 634.474 490.476 631.765 495.314 626.335C495.569 631.036 496.076 635.719 496.834 640.366C496.791 641.013 498.619 738.949 494.99 754.499C491.319 770.215 488.537 815.254 492.262 827.484C494.643 835.361 500.686 848.701 508.93 848.187C510.188 848.104 511.379 847.59 512.301 846.731C513.223 845.872 513.821 844.721 513.993 843.472C514.971 844.455 516.166 845.194 517.482 845.631C518.798 846.067 520.198 846.189 521.57 845.987C522.523 845.851 523.426 845.473 524.192 844.89C524.959 844.306 525.563 843.536 525.947 842.653C527.314 843.295 528.877 843.386 530.309 842.905C531.082 842.537 531.756 841.99 532.274 841.309C532.793 840.628 533.141 839.833 533.29 838.99C534.586 838.29 535.642 837.217 536.321 835.911C537 834.604 537.272 833.124 537.1 831.661C538.988 825.987 538.983 819.854 537.086 814.183V814.183ZM483.503 465.496C484.989 474.488 488.742 497.948 491.319 520.113C485.46 520.251 479.745 521.951 474.764 525.037C460.953 532.062 459.953 531.957 451.999 531.176C436.659 529.666 412.247 526.928 396.326 526.685C414.314 514.188 465.034 478.903 483.503 465.496ZM485.327 627.002C484.67 627.219 483.963 627.237 483.296 627.054C482.628 626.871 482.029 626.495 481.574 625.973C481.185 625.178 481.03 624.289 481.125 623.41C481.22 622.53 481.563 621.695 482.113 621.001C485.342 616.325 484.646 608.243 479.865 594.808C476.212 584.544 463.096 563.423 452.085 561.313C443.474 559.67 395.44 568.457 379.547 571.428C386.293 559.135 390.199 545.486 390.977 531.485C405.489 530.933 436.921 534.467 451.537 535.914C460.429 536.796 462.32 536.724 476.931 529.276C486.594 524.351 490.423 524.665 491.428 524.813C491.69 533.052 494.638 612.976 494.843 617.344C494.31 619.679 493.137 621.82 491.455 623.526C489.774 625.232 487.65 626.436 485.323 627.002H485.327ZM524.856 836.371C523.871 834.209 522.72 832.126 521.413 830.142C521.052 829.643 520.511 829.303 519.905 829.194C519.298 829.085 518.673 829.215 518.161 829.558C517.649 829.9 517.289 830.427 517.157 831.029C517.026 831.631 517.132 832.26 517.455 832.785C518.318 834.101 519.112 835.46 519.836 836.857C522.008 841.143 521.922 841.053 520.622 841.324C518.084 841.862 514.707 837.476 513.478 835.266C513.196 834.764 512.741 834.381 512.197 834.188C511.654 833.996 511.059 834.007 510.523 834.22C509.987 834.433 509.547 834.833 509.284 835.346C509.021 835.859 508.953 836.45 509.092 837.009C509.568 838.952 509.845 842.2 508.668 843.434C505.554 843.701 500.239 837.214 496.853 826.098C493.595 815.397 495.848 771.934 499.662 755.585C502.863 741.864 502.044 668.16 501.715 646.404C512.012 652.724 536.705 652.681 547.192 644.628C543.228 676.55 535.028 707.802 522.808 737.559C516.957 752.129 514.297 767.784 515.007 783.469C516.203 791.699 529.652 808.625 532.695 815.997C533.571 818.282 533.954 820.726 533.819 823.169C532.971 821.679 532.214 820.526 531.914 820.05C531.56 819.527 531.012 819.166 530.392 819.047C529.772 818.928 529.129 819.06 528.606 819.414C528.084 819.768 527.723 820.316 527.604 820.936C527.484 821.557 527.616 822.199 527.971 822.722C529.428 824.879 533.167 831.247 532.257 833.518C530.747 830.69 528.849 828.087 526.618 825.784C526.405 825.545 526.146 825.352 525.857 825.216C525.567 825.079 525.253 825.003 524.934 824.991C524.614 824.978 524.295 825.03 523.996 825.144C523.697 825.258 523.424 825.43 523.193 825.652C522.962 825.874 522.778 826.139 522.653 826.433C522.527 826.728 522.462 827.044 522.461 827.364C522.46 827.684 522.524 828.001 522.648 828.296C522.772 828.59 522.955 828.857 523.184 829.08C528.761 834.923 531.324 841.767 524.88 836.371H524.856Z" fill="#FF143F"/>
<path d="M636.046 343.933C632.522 333.099 621.849 316.916 615.387 306.243C605.27 290.953 597.145 274.435 591.207 257.089C585.826 242.587 580.23 227.6 556.579 221.704C547.296 219.596 538.188 216.783 529.333 213.288L528.823 203.206C528.807 202.894 528.73 202.587 528.596 202.304C528.461 202.021 528.272 201.768 528.04 201.558C527.808 201.348 527.536 201.186 527.241 201.081C526.946 200.976 526.633 200.931 526.321 200.946C526.008 200.962 525.702 201.04 525.419 201.174C525.136 201.309 524.882 201.497 524.672 201.73C524.463 201.962 524.301 202.234 524.196 202.529C524.091 202.824 524.045 203.136 524.061 203.449L524.647 214.979C524.668 215.395 524.798 215.798 525.023 216.149C525.249 216.499 525.562 216.784 525.933 216.975C535.429 221.058 545.307 224.19 555.422 226.323C576.901 231.681 581.42 244.345 588.117 262.48C593.008 275.73 596.037 284.054 615.01 314.73C621.506 324.392 627.035 334.669 631.517 345.414C634.094 353.196 633.741 357.911 632.322 359.002C618.706 369.451 573.11 344.938 557.47 332.603C549.664 326.441 523.537 306.043 515.222 302.281C511.139 300.161 507.654 297.049 505.087 293.232C506.979 280.389 507.267 267.36 505.944 254.446C505.742 250.276 505.808 246.097 506.14 241.935C507.783 243.621 510.464 248.702 510.545 263.842C510.545 264.474 510.796 265.08 511.242 265.526C511.689 265.973 512.295 266.224 512.926 266.224C513.558 266.224 514.163 265.973 514.61 265.526C515.057 265.08 515.307 264.474 515.307 263.842C515.323 259.465 515.004 255.093 514.355 250.765C515.893 257.144 516.709 263.677 516.789 270.238C517.332 293.937 521.804 285.598 531.105 294.527C541.816 304.786 568.543 315.987 582.906 317.963C587.945 318.63 600.213 315.82 608.2 320.307C608.751 320.616 609.402 320.694 610.01 320.524C610.618 320.353 611.134 319.948 611.443 319.397C611.753 318.846 611.831 318.195 611.66 317.587C611.49 316.979 611.084 316.463 610.534 316.154C601.328 310.982 587.383 313.772 583.554 313.249C580.727 312.823 577.932 312.21 575.186 311.415C570.372 303.108 566.513 294.282 563.685 285.107C567.807 279.672 569.953 272.995 569.771 266.176C569.73 265.547 569.441 264.961 568.968 264.545C568.495 264.129 567.876 263.918 567.247 263.957C566.618 263.996 566.03 264.283 565.612 264.756C565.194 265.228 564.981 265.847 565.018 266.476C565.12 272.787 562.853 278.908 558.665 283.631C558.404 283.908 558.214 284.244 558.11 284.611C558.006 284.977 557.991 285.363 558.067 285.736C558.143 286.11 558.308 286.459 558.547 286.756C558.786 287.052 559.093 287.287 559.442 287.441C561.833 294.997 564.916 302.316 568.652 309.305C556.225 305.351 544.624 299.162 534.419 291.041C523.942 281.04 522.037 290.67 521.561 270.086C521.175 252.979 517.389 239.897 511.178 234.205C509.237 232.303 506.643 231.213 503.925 231.157C502.236 230.573 500.413 230.502 498.684 230.953C496.955 231.404 495.398 232.357 494.21 233.691C489.285 238.363 482.17 266.295 483.599 285.521C466.325 296.518 453.595 300.076 431.283 307.748C436.417 300.544 442.08 293.731 448.223 287.364C448.72 286.442 448.968 285.406 448.942 284.359C448.916 283.311 448.617 282.289 448.075 281.392C443.949 276.796 441.77 270.777 441.998 264.604C442.026 263.973 441.802 263.356 441.375 262.89C440.948 262.424 440.353 262.146 439.722 262.118C439.09 262.091 438.474 262.315 438.007 262.742C437.541 263.169 437.264 263.763 437.236 264.395C436.95 271.754 439.508 278.941 444.38 284.464C436.766 292.832 429.585 301.583 422.863 310.682C412.81 313.806 403.37 318.639 394.959 324.969C394.557 325.27 394.261 325.691 394.113 326.171C393.964 326.651 393.971 327.165 394.133 327.641C394.295 328.116 394.603 328.529 395.013 328.819C395.423 329.109 395.914 329.261 396.416 329.255C396.932 329.255 397.433 329.088 397.845 328.779C403.377 324.554 409.439 321.073 415.876 318.425C427.382 313.663 455.676 305.019 467.22 299.795C474.217 296.629 480.963 292.936 487.399 288.746C487.756 288.505 488.04 288.173 488.223 287.784C488.406 287.395 488.48 286.963 488.437 286.536C486.571 267.805 494.091 240.382 497.462 237.177C498.293 236.308 499.37 235.713 500.548 235.472C500.758 235.844 500.848 236.271 500.806 236.696C497.153 237.934 494.314 247.112 492.376 263.981C492.305 264.608 492.486 265.237 492.879 265.731C493.272 266.225 493.845 266.542 494.472 266.614C494.783 266.657 495.099 266.636 495.402 266.553C495.705 266.47 495.988 266.326 496.234 266.131C496.48 265.935 496.684 265.692 496.834 265.416C496.984 265.14 497.076 264.836 497.105 264.523C497.837 257.224 499.256 250.01 501.344 242.978C500.93 247.036 500.887 251.123 501.215 255.189C502.32 262.223 502.344 287.036 499.991 293.679C499.903 293.934 499.858 294.201 499.858 294.47C495.867 302.752 463.32 326.731 425.058 346.734C386.448 366.903 376.395 361.159 376.395 361.159C375.633 360.574 374.252 360.683 373.623 358.068C370.289 343.995 398.75 297.923 406.103 289.965C415.152 280.178 416.667 267.976 420.638 256.832C424.448 246.088 442.274 229.719 455.929 227.047C470.488 224.19 490.095 218.561 490.29 218.503C490.755 218.37 491.168 218.097 491.474 217.723C491.78 217.349 491.965 216.89 492.005 216.408L493.071 203.073C493.096 202.76 493.06 202.446 492.963 202.147C492.866 201.849 492.712 201.572 492.509 201.333C492.305 201.095 492.057 200.898 491.777 200.755C491.498 200.613 491.193 200.526 490.881 200.501C490.568 200.476 490.253 200.513 489.955 200.61C489.656 200.706 489.38 200.86 489.141 201.064C488.902 201.267 488.706 201.516 488.563 201.795C488.42 202.074 488.334 202.379 488.309 202.692L487.356 214.398C482.427 215.789 466.954 220.061 454.971 222.399C439.536 225.414 420.381 243.283 416.109 255.26C412.066 266.581 410.728 277.906 402.56 286.764C395.597 294.313 364.87 342.109 368.951 359.216C370.304 364.903 375.399 366.698 381.215 366.698C388.711 366.698 402.617 363.841 427.22 350.982C455.209 336.371 493.762 311.729 502.944 298.399C505.709 301.878 509.213 304.697 513.202 306.653C519.394 309.462 538.591 323.85 554.465 336.38C566.49 345.862 617.235 376.585 635.17 362.812C640.104 359.016 637.837 349.348 636.046 343.933Z" fill="#FF143F"/>
<path d="M812.635 436.588C813.749 442.374 814.654 447.961 815.321 453.185C815.402 453.812 815.728 454.38 816.228 454.766C816.729 455.152 817.361 455.323 817.988 455.243C818.614 455.162 819.183 454.835 819.569 454.335C819.955 453.835 820.126 453.202 820.045 452.576C819.36 447.256 818.445 441.574 817.316 435.688C817.197 435.067 816.836 434.519 816.313 434.164C815.789 433.81 815.146 433.678 814.526 433.797C813.905 433.916 813.357 434.277 813.002 434.801C812.648 435.324 812.516 435.967 812.635 436.588V436.588Z" fill="#FF143F"/>
<path d="M552.626 142.823C551.308 142.972 550.022 143.33 548.816 143.885C548.554 141.646 547.64 137.422 547.254 135.264C547.187 134.859 547.019 134.477 546.764 134.155C546.509 133.832 546.176 133.58 545.797 133.421C532.274 127.172 521.641 116.003 516.064 102.189C515.919 101.783 515.666 101.425 515.333 101.152C514.999 100.879 514.598 100.701 514.172 100.638C513.746 100.575 513.31 100.629 512.912 100.794C512.514 100.959 512.168 101.229 511.912 101.575C500.44 116.01 486.347 128.15 470.373 137.36C470.04 137.546 469.756 137.809 469.545 138.127C469.335 138.445 469.204 138.809 469.163 139.189C468.211 147.642 468.163 147.761 468.111 148.238C467.213 147.31 466.104 146.612 464.879 146.204C463.654 145.796 462.349 145.689 461.074 145.893C459.799 146.097 458.592 146.605 457.555 147.375C456.519 148.144 455.683 149.153 455.119 150.314C447.832 160.558 458.357 180.389 468.973 179.575C471.015 186.51 474.952 192.738 480.341 197.558C488.643 205.002 499.215 209.427 510.345 210.117C511.945 209.969 546.916 206.269 550.269 174.569C570 166.911 562.813 141.603 552.626 142.823ZM459 153.1C461.343 149.819 463.967 149.014 467.573 155.053C466.977 161.638 467.084 168.268 467.892 174.831C461.462 174.141 454.281 159.734 459 153.1ZM509.892 205.397C500.12 204.552 490.881 200.575 483.551 194.058C479.754 190.603 476.753 186.364 474.756 181.635C472.759 176.906 471.815 171.799 471.988 166.668C471.895 158.018 472.544 149.376 473.926 140.837C488.835 132.085 502.13 120.837 513.231 107.585C519.304 120.633 529.75 131.145 542.758 137.303C544.571 147.382 545.568 157.591 545.74 167.83C546.954 201.511 511.407 205.259 509.892 205.397ZM550.526 169.25C550.526 166.702 550.097 157.305 549.44 149.909C549.485 149.594 549.604 149.293 549.788 149.033C551.917 146.08 556.027 147.128 557.57 153.6C558.409 156.621 558.164 159.84 556.877 162.698C555.591 165.557 553.344 167.875 550.526 169.25V169.25Z" fill="#FF143F"/>
</svg>
